<svg version="1.1" id="Layer_1" xmlns="http://www.w3.org/2000/svg" xmlns:xlink="http://www.w3.org/1999/xlink" x="0px" y="0px"
	 width="100%" viewBox="0 0 500 500" enable-background="new 0 0 500 500" xml:space="preserve">
<path fill="#000000" opacity="1.000000" stroke="none" 
	d="
M218.000000,501.000000 
	C145.333344,501.000000 73.166702,501.000000 1.000039,501.000000 
	C1.000026,334.333405 1.000026,167.666779 1.000013,1.000128 
	C167.666565,1.000085 334.333130,1.000085 500.999756,1.000043 
	C500.999847,167.666534 500.999847,334.333069 500.999939,500.999817 
	C406.833344,501.000000 312.666656,501.000000 218.000000,501.000000 
M337.471954,220.532639 
	C337.334106,225.285187 341.397766,223.176590 343.623657,225.137222 
	C343.628540,238.857346 343.690765,252.577881 343.587128,266.297180 
	C343.567780,268.858490 343.947784,270.481171 347.267181,270.829193 
	C348.013397,271.874969 348.675995,273.736542 349.520599,273.823151 
	C352.904602,274.170105 356.345093,273.966492 360.349609,273.966492 
	C360.349609,256.847351 360.349609,240.480652 360.349609,224.029739 
	C363.849243,223.837860 366.752136,223.678680 369.885254,223.506897 
	C369.885254,220.091629 369.685974,217.253784 369.938141,214.456619 
	C370.222260,211.305130 368.534119,210.804062 365.891388,210.112885 
	C365.241669,209.087952 364.608887,207.183060 363.939697,207.170166 
	C354.006104,206.978821 344.067749,207.038086 333.851837,207.038086 
	C333.851837,210.686554 334.033875,213.836411 333.797424,216.954529 
	C333.587402,219.724670 335.134644,219.919479 337.471954,220.532639 
M292.673798,250.089310 
	C292.673798,256.541321 292.673798,262.993317 292.673798,269.668701 
	C294.265625,269.869049 295.532135,270.028412 296.808685,271.042175 
	C297.407623,272.006500 297.940857,273.746979 298.616516,273.804138 
	C301.997986,274.090210 305.416779,273.935120 309.072601,273.935120 
	C309.072601,253.415283 309.018951,233.663818 309.127655,213.913239 
	C309.144897,210.779800 307.222809,211.013153 305.138855,210.012238 
	C304.457977,209.021667 303.849976,207.247131 303.083588,207.175858 
	C299.712250,206.862320 296.295197,207.040558 292.693542,207.040558 
	C292.693542,214.616943 292.536194,221.540909 292.763550,228.452240 
	C292.868622,231.647034 291.730713,232.663696 288.553680,231.159256 
	C288.553680,224.640854 288.553680,218.122437 288.553680,211.442734 
	C286.865448,211.203888 285.597717,211.024536 284.216156,209.977325 
	C283.501251,208.998108 282.862396,207.253860 282.058075,207.173904 
	C278.805115,206.850540 275.501190,207.039688 271.794952,207.039688 
	C271.794952,227.590683 271.757935,247.671432 271.934998,267.750305 
	C271.941833,268.525787 274.005981,269.283112 275.388733,270.806305 
	C276.282593,271.864624 277.080902,273.713837 278.087921,273.835510 
	C281.328400,274.227051 284.645874,273.981293 288.497223,273.981293 
	C288.497223,266.581360 288.609070,259.634308 288.447113,252.693695 
	C288.372955,249.514832 289.524536,248.395035 292.673798,250.089310 
M115.556168,282.887878 
	C113.968773,288.079987 112.381378,293.272095 110.767700,298.550201 
	C131.694199,307.253387 152.993591,311.287384 174.956680,311.738037 
	C195.416077,312.157898 215.450394,309.195862 234.919846,302.787781 
	C237.122742,302.062714 239.659592,301.819214 239.661911,298.143555 
	C239.672226,281.698517 243.104492,265.771667 247.499191,250.010803 
	C250.425766,239.515076 250.174774,228.923553 245.062210,219.355286 
	C237.372757,204.964355 235.151047,189.544357 233.943893,173.683594 
	C233.622330,169.458725 232.505600,165.101181 230.807846,161.218216 
	C228.064133,154.942963 222.122498,153.280777 216.322861,156.949020 
	C210.847473,160.412140 205.465195,164.098694 200.429489,168.166656 
	C184.253830,181.233749 168.116547,194.358231 152.326508,207.883224 
	C149.599075,210.219391 148.462402,214.541138 146.916748,218.087708 
	C145.690674,220.900955 145.664001,224.464966 143.901886,226.780060 
	C131.142410,243.543610 122.564705,262.362915 115.556168,282.887878 
z"/>
<path fill="#63EBDE" opacity="1.000000" stroke="none" 
	d="
M296.798645,270.187805 
	C295.532135,270.028412 294.265625,269.869049 292.673798,269.668701 
	C292.673798,262.993317 292.673798,256.541321 292.717041,249.219955 
	C292.034973,241.730042 287.485962,246.111588 284.052704,244.825272 
	C284.052704,253.536850 284.052704,261.553070 284.052704,270.048920 
	C280.670776,270.048920 277.891144,270.048920 275.111481,270.048920 
	C274.005981,269.283112 271.941833,268.525787 271.934998,267.750305 
	C271.757935,247.671432 271.794952,227.590683 271.794952,207.039688 
	C275.501190,207.039688 278.805115,206.850540 282.058075,207.173904 
	C282.862396,207.253860 283.501251,208.998108 284.195557,210.881256 
	C284.174988,218.338699 284.174988,224.892227 284.174988,231.855835 
	C285.936859,231.945190 287.352631,232.016998 288.768402,232.088806 
	C291.730713,232.663696 292.868622,231.647034 292.763550,228.452240 
	C292.536194,221.540909 292.693542,214.616943 292.693542,207.040558 
	C296.295197,207.040558 299.712250,206.862320 303.083588,207.175858 
	C303.849976,207.247131 304.457977,209.021667 305.127045,210.915405 
	C305.115234,231.131790 305.115234,250.445038 305.115234,269.781281 
	C301.752289,269.945648 299.275482,270.066742 296.798645,270.187805 
z"/>
<path fill="#5AD6CA" opacity="1.000000" stroke="none" 
	d="
M115.690147,282.515656 
	C122.564705,262.362915 131.142410,243.543610 143.901886,226.780060 
	C145.664001,224.464966 145.690674,220.900955 146.916748,218.087708 
	C148.462402,214.541138 149.599075,210.219391 152.326508,207.883224 
	C168.116547,194.358231 184.253830,181.233749 200.429489,168.166656 
	C205.465195,164.098694 210.847473,160.412140 216.322861,156.949020 
	C222.122498,153.280777 228.064133,154.942963 230.807846,161.218216 
	C232.505600,165.101181 233.622330,169.458725 233.943893,173.683594 
	C235.151047,189.544357 237.372757,204.964355 245.062210,219.355286 
	C250.174774,228.923553 250.425766,239.515076 247.499191,250.010803 
	C243.104492,265.771667 239.672226,281.698517 239.661911,298.143555 
	C239.659592,301.819214 237.122742,302.062714 234.919846,302.787781 
	C215.450394,309.195862 195.416077,312.157898 174.956680,311.738037 
	C152.993591,311.287384 131.694199,307.253387 110.767700,298.550201 
	C112.381378,293.272095 113.968773,288.079987 115.690147,282.515656 
M243.951324,223.353561 
	C243.610641,222.575058 243.269974,221.796570 242.885742,220.298584 
	C235.347626,207.108078 232.681122,192.692963 231.797791,177.731949 
	C231.517120,172.978470 230.608948,168.115311 229.065964,163.618698 
	C226.941391,157.427292 222.348465,156.075714 216.841736,159.609695 
	C212.087723,162.660645 207.376236,165.842392 202.991989,169.393539 
	C186.578110,182.688431 170.233902,196.072617 154.069901,209.668625 
	C151.979111,211.427261 150.317947,214.478210 149.821930,217.180893 
	C148.920486,222.092636 147.876373,226.786270 144.988358,230.980911 
	C144.988358,230.980911 144.870972,230.870743 144.208267,231.039078 
	C129.317123,250.723694 120.882004,273.339996 113.865265,296.856873 
	C114.966400,297.364716 115.676117,297.741913 116.420792,298.028137 
	C131.752594,303.920593 147.650299,307.392456 163.998688,308.578979 
	C187.126511,310.257538 209.883972,308.234711 232.765274,300.813995 
	C234.168198,299.515198 236.571106,298.382080 236.818054,296.891724 
	C239.070602,283.296967 240.947861,269.640045 243.256729,255.445816 
	C243.454178,254.628510 243.651627,253.811188 244.149048,252.261230 
	C247.126999,242.802658 247.914185,233.362000 243.951324,223.353561 
z"/>
<path fill="#FDFDFD" opacity="1.000000" stroke="none" 
	d="
M346.951019,270.074738 
	C343.947784,270.481171 343.567780,268.858490 343.587128,266.297180 
	C343.690765,252.577881 343.628540,238.857346 343.676392,224.273315 
	C343.988800,217.692520 339.727661,220.310013 337.142975,219.836899 
	C335.134644,219.919479 333.587402,219.724670 333.797424,216.954529 
	C334.033875,213.836411 333.851837,210.686554 333.851837,207.038086 
	C344.067749,207.038086 354.006104,206.978821 363.939697,207.170166 
	C364.608887,207.183060 365.241669,209.087952 365.893799,210.979172 
	C365.896210,214.289261 365.896210,216.733063 365.896210,219.473251 
	C362.427094,219.673264 359.513947,219.841217 355.996704,220.043991 
	C355.996704,236.762955 355.996704,253.273010 355.996704,270.074738 
	C352.568207,270.074738 349.759613,270.074738 346.951019,270.074738 
z"/>
<path fill="#666B6B" opacity="1.000000" stroke="none" 
	d="
M347.109100,270.451965 
	C349.759613,270.074738 352.568207,270.074738 355.996704,270.074738 
	C355.996704,253.273010 355.996704,236.762955 355.996704,220.043991 
	C359.513947,219.841217 362.427094,219.673264 365.896210,219.473251 
	C365.896210,216.733063 365.896210,214.289261 365.974609,211.404694 
	C368.534119,210.804062 370.222260,211.305130 369.938141,214.456619 
	C369.685974,217.253784 369.885254,220.091629 369.885254,223.506897 
	C366.752136,223.678680 363.849243,223.837860 360.349609,224.029739 
	C360.349609,240.480652 360.349609,256.847351 360.349609,273.966492 
	C356.345093,273.966492 352.904602,274.170105 349.520599,273.823151 
	C348.675995,273.736542 348.013397,271.874969 347.109100,270.451965 
z"/>
<path fill="#666B6B" opacity="1.000000" stroke="none" 
	d="
M296.803650,270.614990 
	C299.275482,270.066742 301.752289,269.945648 305.115234,269.781281 
	C305.115234,250.445038 305.115234,231.131790 305.183960,211.349060 
	C307.222809,211.013153 309.144897,210.779800 309.127655,213.913239 
	C309.018951,233.663818 309.072601,253.415283 309.072601,273.935120 
	C305.416779,273.935120 301.997986,274.090210 298.616516,273.804138 
	C297.940857,273.746979 297.407623,272.006500 296.803650,270.614990 
z"/>
<path fill="#666B6B" opacity="1.000000" stroke="none" 
	d="
M275.250122,270.427612 
	C277.891144,270.048920 280.670776,270.048920 284.052704,270.048920 
	C284.052704,261.553070 284.052704,253.536850 284.052704,244.825272 
	C287.485962,246.111588 292.034973,241.730042 292.664734,248.766327 
	C289.524536,248.395035 288.372955,249.514832 288.447113,252.693695 
	C288.609070,259.634308 288.497223,266.581360 288.497223,273.981293 
	C284.645874,273.981293 281.328400,274.227051 278.087921,273.835510 
	C277.080902,273.713837 276.282593,271.864624 275.250122,270.427612 
z"/>
<path fill="#666B6B" opacity="1.000000" stroke="none" 
	d="
M288.661041,231.624023 
	C287.352631,232.016998 285.936859,231.945190 284.174988,231.855835 
	C284.174988,224.892227 284.174988,218.338699 284.252502,211.315186 
	C285.597717,211.024536 286.865448,211.203888 288.553680,211.442734 
	C288.553680,218.122437 288.553680,224.640854 288.661041,231.624023 
z"/>
<path fill="#666B6B" opacity="1.000000" stroke="none" 
	d="
M337.307465,220.184769 
	C339.727661,220.310013 343.988800,217.692520 343.625061,223.823120 
	C341.397766,223.176590 337.334106,225.285187 337.307465,220.184769 
z"/>
<path fill="#141616" opacity="1.000000" stroke="none" 
	d="
M242.934769,256.001282 
	C240.947861,269.640045 239.070602,283.296967 236.818054,296.891724 
	C236.571106,298.382080 234.168198,299.515198 232.383179,300.534058 
	C232.001434,299.861145 232.001770,299.468170 232.322479,298.874451 
	C233.416580,297.315826 234.651932,296.029816 234.876648,294.586426 
	C235.525223,290.420380 235.766525,286.190948 236.415710,281.698120 
	C236.727112,280.397827 236.790558,279.385773 236.799545,277.971741 
	C236.906052,275.501953 237.067017,273.434174 237.264679,270.894989 
	C236.244247,271.411285 236.031021,271.446960 235.979004,271.558105 
	C235.767960,272.009003 235.448639,272.483551 235.449982,272.948578 
	C235.477325,282.523254 228.796524,285.058777 221.167435,286.998596 
	C201.255264,292.061462 181.615570,290.028381 161.704834,284.982178 
	C161.547653,283.187378 161.472153,281.524902 161.938766,280.031891 
	C163.612198,274.677338 165.469040,269.380096 167.462158,263.795349 
	C171.585526,257.171814 175.031174,250.457275 179.513565,244.526291 
	C190.920471,229.432922 205.840637,220.297653 225.251099,220.032227 
	C234.199707,219.909866 241.378998,225.510223 242.123520,234.371307 
	C242.632721,240.431717 240.829773,246.686386 239.931885,253.175644 
	C238.396637,257.396118 241.657654,255.458252 242.934769,256.001282 
M178.130478,250.125900 
	C176.246536,253.132675 174.362595,256.139435 171.834351,260.174530 
	C174.938110,259.762115 176.778015,259.517639 179.137543,259.204132 
	C179.137543,255.996216 179.137543,253.073563 179.955261,250.121384 
	C181.320358,250.079941 182.685471,250.038498 184.754074,250.190720 
	C185.714005,250.312668 186.673920,250.434616 187.667053,250.560791 
	C188.170059,246.932007 188.644073,243.512238 189.148743,239.871445 
	C192.535889,240.951157 195.617126,241.933365 198.822067,242.954987 
	C200.272598,239.000778 201.605515,235.367188 203.077362,231.354919 
	C206.035736,233.878601 208.501984,235.982468 211.227005,238.307083 
	C213.065247,234.251923 214.683395,230.682312 216.539459,226.587830 
	C219.021118,230.168030 221.253448,233.388535 223.713852,236.938065 
	C225.958328,233.100891 228.040787,229.540710 230.431213,225.454025 
	C231.710510,229.788147 232.718109,233.201782 233.911148,237.243698 
	C236.055832,234.834427 237.669998,233.021103 239.329865,231.156448 
	C236.150665,224.705429 230.922989,221.743759 224.305405,222.156006 
	C207.350403,223.212250 193.440186,230.370514 182.451385,244.283951 
	C181.194855,246.100250 179.938339,247.916550 178.130478,250.125900 
M184.813004,287.050995 
	C191.853622,287.050995 198.894257,287.050995 206.380569,287.050995 
	C204.375198,284.032593 202.655731,281.444489 200.722488,278.534698 
	C198.765762,281.536285 197.099930,284.091675 195.158157,287.070343 
	C193.033966,284.184418 191.156128,281.633209 189.010162,278.717712 
	C187.124023,281.489105 185.554092,283.795868 183.262238,286.104034 
	C181.441071,283.528320 179.619904,280.952606 177.614304,278.116028 
	C175.872528,280.592102 174.409012,282.672668 172.397873,285.531708 
	C176.928436,286.008911 180.475647,286.382538 184.813004,287.050995 
M234.204636,269.708588 
	C235.429138,264.719940 236.662949,259.733551 237.875702,254.742065 
	C239.267975,249.011703 238.617767,247.849152 233.055496,246.179565 
	C231.786636,245.798706 230.493942,245.476990 229.193253,245.226486 
	C226.496231,244.707123 225.167923,245.752136 224.987106,248.610046 
	C224.802963,251.520462 224.245056,254.407227 223.850815,257.304352 
	C223.485306,257.271301 223.119797,257.238281 222.754288,257.205261 
	C221.621490,254.243942 220.488678,251.282608 219.059326,247.546066 
	C218.604752,253.554947 218.226929,258.549133 217.849106,263.543304 
	C217.437592,263.552399 217.026077,263.561523 216.614548,263.570648 
	C215.115479,259.895203 213.616394,256.219757 212.018112,252.301071 
	C211.672729,258.089020 211.362030,263.295685 211.051331,268.502350 
	C210.590088,268.523315 210.128845,268.544281 209.667618,268.565247 
	C208.355820,265.395172 207.044006,262.225098 205.584641,258.698395 
	C201.440796,263.378357 202.599884,270.840698 208.062134,278.532471 
	C208.840668,277.062622 209.590714,275.646576 210.612854,273.716827 
	C212.875259,277.020538 214.113068,278.828064 215.642197,281.061005 
	C217.373352,278.085205 218.757782,275.705414 220.384415,272.909302 
	C221.935806,275.120636 223.172150,276.882874 224.717880,279.086121 
	C226.408890,276.115814 227.722336,273.808746 229.254929,271.116730 
	C230.310074,273.458679 231.017380,275.028564 232.211624,277.679199 
	C233.011459,274.540253 233.524918,272.525177 234.204636,269.708588 
M209.846344,280.271851 
	C208.820297,282.393188 207.794250,284.514496 206.191864,287.827423 
	C213.118698,286.338287 218.723480,285.133362 224.960815,283.792419 
	C223.152451,280.937408 221.917953,278.988373 220.487259,276.729614 
	C218.697601,279.936707 217.223984,282.577484 215.543976,285.588104 
	C214.311447,283.484528 213.513840,281.829559 212.419006,280.402618 
	C211.994980,279.849976 210.898117,279.813599 209.846344,280.271851 
M165.193268,283.738953 
	C167.279510,284.150879 169.365738,284.562836 172.084473,285.099670 
	C170.627258,282.237457 169.477432,279.979004 167.778793,276.642578 
	C166.336365,279.674744 165.457169,281.522919 165.193268,283.738953 
M239.676361,262.819214 
	C238.887329,262.849579 238.098297,262.879974 237.309265,262.910370 
	C237.456482,263.476746 237.603683,264.043091 237.750885,264.609467 
	C238.444229,264.239075 239.137573,263.868713 239.676361,262.819214 
M237.743073,268.129822 
	C237.603104,267.586426 237.463135,267.042999 237.323181,266.499603 
	C236.961548,266.688751 236.599930,266.877899 236.238297,267.067078 
	C236.591736,267.564331 236.945175,268.061584 237.743073,268.129822 
M239.210587,259.624664 
	C239.214355,259.227264 239.218124,258.829834 239.221893,258.432404 
	C239.056473,258.430847 238.747253,258.418243 238.746399,258.429352 
	C238.716003,258.825470 238.714432,259.223785 239.210587,259.624664 
z"/>
<path fill="#151C1B" opacity="1.000000" stroke="none" 
	d="
M232.002106,299.075226 
	C232.001770,299.468170 232.001434,299.861145 232.003036,300.548767 
	C209.883972,308.234711 187.126511,310.257538 163.998688,308.578979 
	C147.650299,307.392456 131.752594,303.920593 116.420792,298.028137 
	C115.676117,297.741913 114.966400,297.364716 113.865265,296.856873 
	C120.882004,273.339996 129.317123,250.723694 144.607849,231.331268 
	C141.719147,238.996948 136.488098,245.383011 136.206146,254.228058 
	C135.988525,261.054626 136.923615,274.323059 140.276550,278.966675 
	C150.259506,253.568542 158.374512,227.533569 178.285751,207.735107 
	C178.953247,207.071411 179.374023,205.687653 179.219803,204.753464 
	C178.638718,201.233383 177.771927,197.760437 176.983887,194.140106 
	C175.831177,195.123871 173.411102,196.197220 173.302765,197.467682 
	C172.977753,201.279434 169.969971,201.654724 167.656540,203.072342 
	C164.544907,204.979034 161.334335,206.781769 158.474136,209.022202 
	C156.349167,210.686707 154.713715,212.976120 152.614838,215.272339 
	C151.915375,218.267151 152.045120,221.274506 150.854858,223.608765 
	C149.464203,226.336014 146.921814,228.475983 144.879089,230.870728 
	C147.876373,226.786270 148.920486,222.092636 149.821930,217.180893 
	C150.317947,214.478210 151.979111,211.427261 154.069901,209.668625 
	C170.233902,196.072617 186.578110,182.688431 202.991989,169.393539 
	C207.376236,165.842392 212.087723,162.660645 216.841736,159.609695 
	C222.348465,156.075714 226.941391,157.427292 229.065964,163.618698 
	C230.608948,168.115311 231.517120,172.978470 231.797791,177.731949 
	C232.681122,192.692963 235.347626,207.108078 242.665375,220.852417 
	C242.271881,221.995010 242.098770,222.583786 241.680695,222.981888 
	C240.940170,221.889359 240.444595,220.987488 239.972351,219.802765 
	C239.743378,219.281311 239.491058,219.042679 239.115097,218.880814 
	C238.991455,218.957565 239.233841,218.792679 239.243011,218.425476 
	C233.352493,207.104660 231.227676,195.145248 229.948547,182.603043 
	C228.031937,180.003815 226.456024,177.095383 224.015472,175.708557 
	C220.633316,173.786667 213.019135,177.196136 212.850555,180.278458 
	C212.418564,188.176300 212.288895,196.090652 211.974808,204.389069 
	C211.840729,206.090607 211.770187,207.401489 211.607422,208.710999 
	C211.515198,208.709625 211.332504,208.735153 211.320312,208.474716 
	C211.043701,207.783615 210.779266,207.352936 210.433655,206.534653 
	C208.466949,199.266190 206.581467,192.385330 204.617706,185.218842 
	C199.949326,189.538315 194.670151,194.031830 189.910263,199.020782 
	C188.022430,200.999481 186.551834,203.971680 186.161835,206.674850 
	C184.876251,215.585205 184.171570,224.579376 183.243835,233.541351 
	C182.914551,233.681961 182.585281,233.822586 182.256012,233.963196 
	C180.431198,226.798615 178.606384,219.634033 176.797958,212.533752 
	C174.820435,215.298431 172.443161,218.621964 169.717499,222.005249 
	C167.294388,225.077835 164.664352,227.850235 163.238449,231.143936 
	C155.976425,247.918533 148.969223,264.804901 142.072327,281.733429 
	C141.510925,283.111359 141.922592,285.440674 142.771378,286.752563 
	C151.503937,300.249847 164.150787,306.642853 180.553650,306.833008 
	C198.425415,307.031311 215.304794,303.648102 232.002106,299.075226 
M213.231689,164.922653 
	C208.990936,167.793396 208.283325,173.903915 211.943573,176.894714 
	C216.895645,173.520752 222.039978,171.097183 228.577332,174.523148 
	C228.374084,171.947632 228.806610,169.083023 227.801270,166.872238 
	C226.632217,164.301437 224.235703,160.518661 222.313599,160.483856 
	C219.571716,160.434235 216.776840,163.313980 213.231689,164.922653 
M184.947662,197.207779 
	C185.895081,197.426239 187.293610,198.159668 187.721375,197.784927 
	C193.083618,193.087723 198.352951,188.279984 203.508881,183.356857 
	C204.234985,182.663544 204.693314,181.101257 204.472504,180.122345 
	C203.947906,177.796738 202.941696,175.579773 202.064728,173.136795 
	C193.516632,178.880600 185.560822,184.909302 184.947662,197.207779 
M181.239288,204.337967 
	C181.000580,206.893646 180.642746,209.445114 180.552567,212.006027 
	C180.433182,215.396881 180.523163,218.795135 180.523163,222.190201 
	C181.190430,222.189224 181.857712,222.188248 182.524979,222.187256 
	C183.152023,210.746292 183.779053,199.305313 184.398178,188.008804 
	C179.370728,191.231522 177.935013,197.536148 181.239288,204.337967 
M208.761536,194.944214 
	C209.406326,189.874710 210.744827,184.765884 210.460602,179.749023 
	C210.259247,176.195450 207.863815,172.766205 206.067856,168.346542 
	C205.751114,171.069824 204.352005,174.223862 205.371506,175.946793 
	C208.856964,181.837189 207.513824,188.199997 208.761536,194.944214 
z"/>
<path fill="#141616" opacity="1.000000" stroke="none" 
	d="
M243.917587,223.960464 
	C247.914185,233.362000 247.126999,242.802658 243.666397,252.626602 
	C242.740509,252.976471 242.297256,252.960953 241.944427,252.569305 
	C242.781387,249.120438 243.527908,246.047699 244.449890,242.837387 
	C244.596207,242.165283 244.567062,241.630753 244.455688,240.635849 
	C243.818985,235.198486 243.264542,230.221512 243.029175,224.939697 
	C243.538025,224.410065 243.727814,224.185272 243.917587,223.960464 
z"/>
<path fill="#151C1B" opacity="1.000000" stroke="none" 
	d="
M241.854019,252.945450 
	C242.297256,252.960953 242.740509,252.976471 243.516418,252.992920 
	C243.651627,253.811188 243.454178,254.628510 243.095749,255.723541 
	C241.657654,255.458252 238.396637,257.396118 240.227661,253.229248 
	C241.052704,252.956116 241.453369,252.950775 241.854019,252.945450 
z"/>
<path fill="#141616" opacity="1.000000" stroke="none" 
	d="
M241.925659,223.172546 
	C242.098770,222.583786 242.271881,221.995010 242.687134,221.212158 
	C243.269974,221.796570 243.610641,222.575058 243.934448,223.657013 
	C243.727814,224.185272 243.538025,224.410065 242.805695,224.752502 
	C242.150635,224.304276 242.038147,223.738419 241.925659,223.172546 
z"/>
<path fill="#F7F8F8" opacity="1.000000" stroke="none" 
	d="
M241.680695,222.981888 
	C242.038147,223.738419 242.150635,224.304276 242.486603,225.057343 
	C243.264542,230.221512 243.818985,235.198486 244.314178,240.929565 
	C244.261444,242.114105 244.267944,242.544540 244.274445,242.974976 
	C243.527908,246.047699 242.781387,249.120438 241.944427,252.569305 
	C241.453369,252.950775 241.052704,252.956116 240.356293,252.907837 
	C240.829773,246.686386 242.632721,240.431717 242.123520,234.371307 
	C241.378998,225.510223 234.199707,219.909866 225.251099,220.032227 
	C205.840637,220.297653 190.920471,229.432922 179.513565,244.526291 
	C175.031174,250.457275 171.585526,257.171814 167.102692,263.821259 
	C164.790421,266.420074 163.043213,268.727112 161.295990,271.034180 
	C160.859756,270.784882 160.423508,270.535583 159.987259,270.286316 
	C162.398468,265.728638 164.880981,261.206512 167.180634,256.593231 
	C167.942841,255.064194 168.774033,253.251740 168.629211,251.654510 
	C168.327316,248.324860 167.395645,245.052307 166.548676,240.903778 
	C164.267670,245.377533 162.358032,249.122925 160.448395,252.868301 
	C160.066498,252.703156 159.684616,252.538010 159.302719,252.372849 
	C161.577072,246.098541 163.879044,239.834045 166.115509,233.546249 
	C167.484314,229.697830 168.752533,225.813644 170.065918,221.945496 
	C172.443161,218.621964 174.820435,215.298431 176.797958,212.533752 
	C178.606384,219.634033 180.431198,226.798615 182.256012,233.963196 
	C182.585281,233.822586 182.914551,233.681961 183.243835,233.541351 
	C184.171570,224.579376 184.876251,215.585205 186.161835,206.674850 
	C186.551834,203.971680 188.022430,200.999481 189.910263,199.020782 
	C194.670151,194.031830 199.949326,189.538315 204.617706,185.218842 
	C206.581467,192.385330 208.466949,199.266190 210.083557,206.551147 
	C209.175186,207.606033 208.535721,208.256805 207.710388,208.994446 
	C207.554672,209.290726 207.584839,209.500153 207.614990,209.709595 
	C207.818878,209.551086 208.022751,209.392593 208.622208,209.238495 
	C209.789368,209.073654 210.560928,208.904404 211.332504,208.735153 
	C211.332504,208.735153 211.515198,208.709625 211.821411,208.915588 
	C208.958328,211.959427 205.789017,214.797302 202.619720,217.635193 
	C207.238281,216.852234 211.550552,215.336014 215.875763,213.857605 
	C223.875397,211.123291 231.210846,211.837906 237.512466,218.023285 
	C237.932922,218.435974 238.653076,218.543320 239.233841,218.792679 
	C239.233841,218.792679 238.991455,218.957565 239.055603,219.161652 
	C239.396179,219.605698 239.672607,219.845642 239.949036,220.085602 
	C240.444595,220.987488 240.940170,221.889359 241.680695,222.981888 
M199.030197,198.979095 
	C194.639099,199.817368 192.333984,202.406311 191.786179,207.180588 
	C197.353989,204.809418 197.353989,204.809418 199.030197,198.979095 
z"/>
<path fill="#85B8B8" opacity="1.000000" stroke="none" 
	d="
M169.717499,222.005264 
	C168.752533,225.813644 167.484314,229.697830 166.115509,233.546249 
	C163.879044,239.834045 161.577072,246.098541 159.302719,252.372849 
	C159.684616,252.538010 160.066498,252.703156 160.448395,252.868301 
	C162.358032,249.122925 164.267670,245.377533 166.548676,240.903778 
	C167.395645,245.052307 168.327316,248.324860 168.629211,251.654510 
	C168.774033,253.251740 167.942841,255.064194 167.180634,256.593231 
	C164.880981,261.206512 162.398468,265.728638 159.987259,270.286316 
	C160.423508,270.535583 160.859756,270.784882 161.295990,271.034180 
	C163.043213,268.727112 164.790421,266.420074 166.897095,264.087097 
	C165.469040,269.380096 163.612198,274.677338 161.938766,280.031891 
	C161.472153,281.524902 161.547653,283.187378 161.694366,285.333252 
	C164.794418,292.808319 171.235397,295.384399 177.411423,298.631500 
	C172.799728,300.229248 167.873993,293.831085 163.548920,300.578522 
	C169.061523,302.645599 174.581848,304.715607 180.102173,306.785583 
	C164.150787,306.642853 151.503937,300.249847 142.771378,286.752563 
	C141.922592,285.440674 141.510925,283.111359 142.072327,281.733429 
	C148.969223,264.804901 155.976425,247.918533 163.238449,231.143936 
	C164.664352,227.850235 167.294388,225.077835 169.717499,222.005264 
z"/>
<path fill="#F7F8F8" opacity="1.000000" stroke="none" 
	d="
M180.553650,306.833008 
	C174.581848,304.715607 169.061523,302.645599 163.548920,300.578522 
	C167.873993,293.831085 172.799728,300.229248 177.411423,298.631500 
	C171.235397,295.384399 164.794418,292.808319 162.024719,285.543335 
	C181.615570,290.028381 201.255264,292.061462 221.167435,286.998596 
	C228.796524,285.058777 235.477325,282.523254 235.449982,272.948578 
	C235.448639,272.483551 235.767960,272.009003 235.979004,271.558105 
	C236.031021,271.446960 236.244247,271.411285 237.264679,270.894989 
	C237.067017,273.434174 236.906052,275.501953 236.559204,278.272125 
	C236.304794,279.978485 236.236282,280.982422 236.167770,281.986389 
	C235.766525,286.190948 235.525223,290.420380 234.876648,294.586426 
	C234.651932,296.029816 233.416580,297.315826 232.322479,298.874451 
	C215.304794,303.648102 198.425415,307.031311 180.553650,306.833008 
M223.278519,292.038452 
	C209.740967,295.939484 195.950821,295.614868 181.983780,294.833771 
	C185.985229,296.352631 189.986694,297.871521 194.305847,299.510986 
	C192.936310,299.902100 192.009995,300.166626 190.369965,300.634979 
	C204.841751,303.684906 217.332687,302.196014 227.267731,290.973419 
	C226.187683,291.267822 225.107620,291.562225 223.278519,292.038452 
z"/>
<path fill="#0C3140" opacity="1.000000" stroke="none" 
	d="
M234.121521,270.109344 
	C233.524918,272.525177 233.011459,274.540253 232.211624,277.679199 
	C231.017380,275.028564 230.310074,273.458679 229.254929,271.116730 
	C227.722336,273.808746 226.408890,276.115814 224.717880,279.086121 
	C223.172150,276.882874 221.935806,275.120636 220.384415,272.909302 
	C218.757782,275.705414 217.373352,278.085205 215.642197,281.061005 
	C214.113068,278.828064 212.875259,277.020538 210.612854,273.716827 
	C209.590714,275.646576 208.840668,277.062622 208.062134,278.532471 
	C202.599884,270.840698 201.440796,263.378357 205.584641,258.698395 
	C207.044006,262.225098 208.355820,265.395172 209.667618,268.565247 
	C210.128845,268.544281 210.590088,268.523315 211.051331,268.502350 
	C211.362030,263.295685 211.672729,258.089020 212.018112,252.301071 
	C213.616394,256.219757 215.115479,259.895203 216.614548,263.570648 
	C217.026077,263.561523 217.437592,263.552399 217.849106,263.543304 
	C218.226929,258.549133 218.604752,253.554947 219.059326,247.546066 
	C220.488678,251.282608 221.621490,254.243942 222.754288,257.205261 
	C223.119797,257.238281 223.485306,257.271301 223.850815,257.304352 
	C224.245056,254.407227 224.802963,251.520462 224.987106,248.610046 
	C225.167923,245.752136 226.496231,244.707123 229.193253,245.226486 
	C230.493942,245.476990 231.786636,245.798706 233.055496,246.179565 
	C238.617767,247.849152 239.267975,249.011703 237.875702,254.742065 
	C236.662949,259.733551 235.429138,264.719940 234.121521,270.109344 
z"/>
<path fill="#F4F5F5" opacity="1.000000" stroke="none" 
	d="
M183.070282,244.023682 
	C193.440186,230.370514 207.350403,223.212250 224.305405,222.156006 
	C230.922989,221.743759 236.150665,224.705429 239.329865,231.156448 
	C237.669998,233.021103 236.055832,234.834427 233.911148,237.243698 
	C232.718109,233.201782 231.710510,229.788147 230.431213,225.454025 
	C228.040787,229.540710 225.958328,233.100891 223.713852,236.938065 
	C221.253448,233.388535 219.021118,230.168030 216.539459,226.587830 
	C214.683395,230.682312 213.065247,234.251923 211.227005,238.307083 
	C208.501984,235.982468 206.035736,233.878601 203.077362,231.354919 
	C201.605515,235.367188 200.272598,239.000778 198.822067,242.954987 
	C195.617126,241.933365 192.535889,240.951157 189.148743,239.871445 
	C188.644073,243.512238 188.170059,246.932007 187.667053,250.560791 
	C186.673920,250.434616 185.714005,250.312668 184.211426,249.820984 
	C183.469269,247.642075 183.269775,245.832870 183.070282,244.023682 
z"/>
<path fill="#F4F5F5" opacity="1.000000" stroke="none" 
	d="
M183.984177,286.102631 
	C185.554092,283.795868 187.124023,281.489105 189.010162,278.717712 
	C191.156128,281.633209 193.033966,284.184418 195.158157,287.070343 
	C197.099930,284.091675 198.765762,281.536285 200.722488,278.534698 
	C202.655731,281.444489 204.375198,284.032593 206.380569,287.050995 
	C198.894257,287.050995 191.853622,287.050995 184.456757,286.737549 
	C184.100494,286.424103 183.984177,286.102631 183.984177,286.102631 
z"/>
<path fill="#F4F5F5" opacity="1.000000" stroke="none" 
	d="
M209.977051,279.906921 
	C210.898117,279.813599 211.994980,279.849976 212.419006,280.402618 
	C213.513840,281.829559 214.311447,283.484528 215.543976,285.588104 
	C217.223984,282.577484 218.697601,279.936707 220.487259,276.729614 
	C221.917953,278.988373 223.152451,280.937408 224.960815,283.792419 
	C218.723480,285.133362 213.118698,286.338287 206.191864,287.827423 
	C207.794250,284.514496 208.820297,282.393188 209.977051,279.906921 
z"/>
<path fill="#85B8B8" opacity="1.000000" stroke="none" 
	d="
M183.623199,286.103333 
	C183.984177,286.102631 184.100494,286.424103 184.061676,286.590149 
	C180.475647,286.382538 176.928436,286.008911 172.397873,285.531708 
	C174.409012,282.672668 175.872528,280.592102 177.614304,278.116028 
	C179.619904,280.952606 181.441071,283.528320 183.623199,286.103333 
z"/>
<path fill="#85B8B8" opacity="1.000000" stroke="none" 
	d="
M179.137543,250.150909 
	C179.137543,253.073563 179.137543,255.996216 179.137543,259.204132 
	C176.778015,259.517639 174.938110,259.762115 171.834351,260.174530 
	C174.362595,256.139435 176.246536,253.132675 178.523529,250.031372 
	C178.916565,249.936829 179.137543,250.150909 179.137543,250.150909 
z"/>
<path fill="#85B8B8" opacity="1.000000" stroke="none" 
	d="
M164.885620,283.555023 
	C165.457169,281.522919 166.336365,279.674744 167.778793,276.642578 
	C169.477432,279.979004 170.627258,282.237457 172.084473,285.099670 
	C169.365738,284.562836 167.279510,284.150879 164.885620,283.555023 
z"/>
<path fill="#85B8B8" opacity="1.000000" stroke="none" 
	d="
M182.760834,244.153809 
	C183.269775,245.832870 183.469269,247.642075 183.859680,249.724152 
	C182.685471,250.038498 181.320358,250.079941 179.546402,250.136139 
	C179.137543,250.150909 178.916565,249.936829 178.799194,249.834839 
	C179.938339,247.916550 181.194855,246.100250 182.760834,244.153809 
z"/>
<path fill="#151C1B" opacity="1.000000" stroke="none" 
	d="
M239.753632,263.158752 
	C239.137573,263.868713 238.444229,264.239075 237.750885,264.609467 
	C237.603683,264.043091 237.456482,263.476746 237.309265,262.910370 
	C238.098297,262.879974 238.887329,262.849579 239.753632,263.158752 
z"/>
<path fill="#151C1B" opacity="1.000000" stroke="none" 
	d="
M237.520844,268.344299 
	C236.945175,268.061584 236.591736,267.564331 236.238312,267.067078 
	C236.599930,266.877899 236.961548,266.688751 237.323181,266.499603 
	C237.463135,267.042999 237.603104,267.586426 237.520844,268.344299 
z"/>
<path fill="#151C1B" opacity="1.000000" stroke="none" 
	d="
M238.959717,259.623230 
	C238.714432,259.223785 238.716003,258.825470 238.746399,258.429352 
	C238.747253,258.418243 239.056473,258.430847 239.221893,258.432434 
	C239.218124,258.829834 239.214355,259.227264 238.959717,259.623230 
z"/>
<path fill="#151C1B" opacity="1.000000" stroke="none" 
	d="
M236.415710,281.698120 
	C236.236282,280.982422 236.304794,279.978485 236.613647,278.674133 
	C236.790558,279.385773 236.727112,280.397827 236.415710,281.698120 
z"/>
<path fill="#5FE2D6" opacity="1.000000" stroke="none" 
	d="
M152.860229,214.987183 
	C154.713715,212.976120 156.349167,210.686707 158.474136,209.022202 
	C161.334335,206.781769 164.544907,204.979034 167.656540,203.072342 
	C169.969971,201.654724 172.977753,201.279434 173.302765,197.467682 
	C173.411102,196.197220 175.831177,195.123871 176.983887,194.140106 
	C177.771927,197.760437 178.638718,201.233383 179.219803,204.753464 
	C179.374023,205.687653 178.953247,207.071411 178.285751,207.735107 
	C158.374512,227.533569 150.259506,253.568542 140.257111,278.494690 
	C139.873154,277.537415 139.687454,276.843567 139.820984,276.217834 
	C141.919754,266.383667 144.108627,256.568329 146.131897,246.718887 
	C146.403366,245.397308 145.886673,243.913818 145.734970,242.505295 
	C145.187912,242.306274 144.640854,242.107254 144.093811,241.908234 
	C148.428833,237.194000 152.763870,232.479752 156.109756,228.841187 
	C154.904495,223.702713 153.882355,219.344940 152.860229,214.987183 
M161.927887,211.455856 
	C159.393463,212.556320 156.859039,213.656799 154.409851,214.720261 
	C156.224579,221.624939 160.146500,223.973373 164.140305,220.712479 
	C168.041779,217.526932 169.991165,213.103989 171.212463,207.634415 
	C167.833939,209.012726 165.233353,210.073669 161.927887,211.455856 
z"/>
<path fill="#87B9BA" opacity="1.000000" stroke="none" 
	d="
M239.243011,218.425476 
	C238.653076,218.543320 237.932922,218.435974 237.512466,218.023285 
	C231.210846,211.837906 223.875397,211.123291 215.875763,213.857605 
	C211.550552,215.336014 207.238281,216.852234 202.619720,217.635193 
	C205.789017,214.797302 208.958328,211.959427 211.913635,208.916962 
	C211.770187,207.401489 211.840729,206.090607 212.332382,204.370651 
	C217.385544,201.950287 222.017609,199.938965 227.238068,197.672165 
	C226.721146,195.125839 226.920761,191.665009 225.329208,189.555649 
	C223.825638,187.562927 220.439316,186.990799 217.777634,185.745377 
	C220.787903,181.650269 225.240768,181.917709 229.903595,182.972473 
	C231.227676,195.145248 233.352493,207.104660 239.243011,218.425476 
z"/>
<path fill="#0E3746" opacity="1.000000" stroke="none" 
	d="
M152.614838,215.272339 
	C153.882355,219.344940 154.904495,223.702713 156.109756,228.841187 
	C152.763870,232.479752 148.428833,237.194000 144.093811,241.908234 
	C144.640854,242.107254 145.187912,242.306274 145.734970,242.505295 
	C145.886673,243.913818 146.403366,245.397308 146.131897,246.718887 
	C144.108627,256.568329 141.919754,266.383667 139.820984,276.217834 
	C139.687454,276.843567 139.873154,277.537415 139.929810,278.671539 
	C136.923615,274.323059 135.988525,261.054626 136.206146,254.228058 
	C136.488098,245.383011 141.719147,238.996948 144.939209,231.247101 
	C144.870972,230.870743 144.988358,230.980911 144.933731,230.925812 
	C146.921814,228.475983 149.464203,226.336014 150.854858,223.608765 
	C152.045120,221.274506 151.915375,218.267151 152.614838,215.272339 
z"/>
<path fill="#FDFDFD" opacity="1.000000" stroke="none" 
	d="
M229.948547,182.603043 
	C225.240768,181.917709 220.787903,181.650269 217.777634,185.745377 
	C220.439316,186.990799 223.825638,187.562927 225.329208,189.555649 
	C226.920761,191.665009 226.721146,195.125839 227.238068,197.672165 
	C222.017609,199.938965 217.385544,201.950287 212.395905,203.980011 
	C212.288895,196.090652 212.418564,188.176300 212.850555,180.278458 
	C213.019135,177.196136 220.633316,173.786667 224.015472,175.708557 
	C226.456024,177.095383 228.031937,180.003815 229.948547,182.603043 
z"/>
<path fill="#5FE2D6" opacity="1.000000" stroke="none" 
	d="
M184.959259,196.807968 
	C185.560822,184.909302 193.516632,178.880600 202.064728,173.136795 
	C202.941696,175.579773 203.947906,177.796738 204.472504,180.122345 
	C204.693314,181.101257 204.234985,182.663544 203.508881,183.356857 
	C198.352951,188.279984 193.083618,193.087723 187.721375,197.784927 
	C187.293610,198.159668 185.895081,197.426239 184.959259,196.807968 
z"/>
<path fill="#0E3746" opacity="1.000000" stroke="none" 
	d="
M214.004578,164.942505 
	C216.776840,163.313980 219.571716,160.434235 222.313599,160.483856 
	C224.235703,160.518661 226.632217,164.301437 227.801270,166.872238 
	C228.806610,169.083023 228.374084,171.947632 228.333694,174.365540 
	C225.418259,168.162109 223.530380,167.601273 215.309677,170.310791 
	C215.172684,170.169708 214.888550,169.897812 214.900620,169.574371 
	C214.609985,167.814774 214.307281,166.378647 214.004578,164.942505 
z"/>
<path fill="#0C3140" opacity="1.000000" stroke="none" 
	d="
M181.135254,203.957886 
	C177.935013,197.536148 179.370728,191.231522 184.398178,188.008804 
	C183.779053,199.305313 183.152023,210.746292 182.524979,222.187256 
	C181.857712,222.188248 181.190430,222.189224 180.523163,222.190201 
	C180.523163,218.795135 180.433182,215.396881 180.552567,212.006027 
	C180.642746,209.445114 181.000580,206.893646 181.135254,203.957886 
z"/>
<path fill="#5FE2D6" opacity="1.000000" stroke="none" 
	d="
M213.618134,164.932587 
	C214.307281,166.378647 214.609985,167.814774 214.652481,169.670715 
	C214.389648,170.325012 214.387009,170.559525 214.384369,170.794037 
	C214.738480,170.679993 215.092575,170.565933 215.446671,170.451874 
	C223.530380,167.601273 225.418259,168.162109 228.003571,174.576080 
	C222.039978,171.097183 216.895645,173.520752 211.943573,176.894714 
	C208.283325,173.903915 208.990936,167.793396 213.618134,164.932587 
z"/>
<path fill="#0C3140" opacity="1.000000" stroke="none" 
	d="
M208.534454,194.638092 
	C207.513824,188.199997 208.856964,181.837189 205.371506,175.946793 
	C204.352005,174.223862 205.751114,171.069824 206.067856,168.346542 
	C207.863815,172.766205 210.259247,176.195450 210.460602,179.749023 
	C210.744827,184.765884 209.406326,189.874710 208.534454,194.638092 
z"/>
<path fill="#87B9BA" opacity="1.000000" stroke="none" 
	d="
M211.320312,208.474716 
	C210.560928,208.904404 209.789368,209.073654 208.540619,209.155884 
	C208.063431,209.068848 207.896255,208.907593 207.896255,208.907593 
	C208.535721,208.256805 209.175186,207.606033 210.164764,206.938766 
	C210.779266,207.352936 211.043701,207.783615 211.320312,208.474716 
z"/>
<path fill="#87B9BA" opacity="1.000000" stroke="none" 
	d="
M239.972366,219.802765 
	C239.672607,219.845642 239.396179,219.605698 239.179230,219.084900 
	C239.491058,219.042679 239.743378,219.281311 239.972366,219.802765 
z"/>
<path fill="#151C1B" opacity="1.000000" stroke="none" 
	d="
M244.449890,242.837387 
	C244.267944,242.544540 244.261444,242.114105 244.396439,241.389954 
	C244.567062,241.630753 244.596207,242.165283 244.449890,242.837387 
z"/>
<path fill="#151C1B" opacity="1.000000" stroke="none" 
	d="
M199.373474,198.998718 
	C197.353989,204.809418 197.353989,204.809418 191.786179,207.180588 
	C192.333984,202.406311 194.639099,199.817368 199.373474,198.998718 
z"/>
<path fill="#87B9BA" opacity="1.000000" stroke="none" 
	d="
M208.145020,209.151459 
	C208.022751,209.392593 207.818878,209.551086 207.614990,209.709595 
	C207.584839,209.500153 207.554672,209.290726 207.710388,208.994446 
	C207.896255,208.907593 208.063431,209.068848 208.145020,209.151459 
z"/>
<path fill="#87B9BA" opacity="1.000000" stroke="none" 
	d="
M223.653046,291.947540 
	C225.107620,291.562225 226.187683,291.267822 227.267731,290.973419 
	C217.332687,302.196014 204.841751,303.684906 190.369965,300.634979 
	C192.009995,300.166626 192.936310,299.902100 194.305847,299.510986 
	C189.986694,297.871521 185.985229,296.352631 181.983780,294.833771 
	C195.950821,295.614868 209.740967,295.939484 223.653046,291.947540 
z"/>
<path fill="#141616" opacity="1.000000" stroke="none" 
	d="
M162.280319,211.295242 
	C165.233353,210.073669 167.833939,209.012726 171.212463,207.634415 
	C169.991165,213.103989 168.041779,217.526932 164.140305,220.712479 
	C160.146500,223.973373 156.224579,221.624939 154.409851,214.720261 
	C156.859039,213.656799 159.393463,212.556320 162.280319,211.295242 
z"/>
<path fill="#0E3746" opacity="1.000000" stroke="none" 
	d="
M215.309677,170.310791 
	C215.092575,170.565933 214.738480,170.679993 214.384369,170.794037 
	C214.387009,170.559525 214.389648,170.325012 214.640411,169.994156 
	C214.888550,169.897812 215.172684,170.169708 215.309677,170.310791 
z"/>
</svg>